<svg id="Layer_5" enable-background="new 0 0 64 64" height="512" viewBox="0 0 64 64" width="512" xmlns="http://www.w3.org/2000/svg"><path d="m17 31c-.551 0-1-.449-1-1h-2c0 1.654 1.346 3 3 3v2h2v-2h3v-3c0-1.654-1.346-3-3-3h-2c-.551 0-1-.449-1-1v-1h3c.551 0 1 .449 1 1h2c0-1.654-1.346-3-3-3v-2h-2v2h-3v3c0 1.654 1.346 3 3 3h2c.551 0 1 .449 1 1v1z"/><path d="m18 55c5.333 0 11-1.752 11-5v-12c0-1.22-.843-2.321-2.381-3.186 1.486-1.876 2.381-4.241 2.381-6.814 0-6.065-4.935-11-11-11s-11 4.935-11 11c0 2.573.895 4.938 2.381 6.814-1.538.865-2.381 1.966-2.381 3.186v12c0 3.248 5.667 5 11 5zm-9-5v-1.042c.574.362 1.253.675 2 .943v1.875c-1.284-.563-2-1.225-2-1.776zm6-7.184v1.993c-.725-.095-1.392-.223-2-.373v-1.962c.645.142 1.315.257 2 .342zm6 5.993v-1.993c.685-.085 1.355-.2 2-.343v1.962c-.608.151-1.275.279-2 .374zm2 1.665v1.962c-.608.15-1.275.278-2 .373v-1.993c.685-.085 1.355-.2 2-.342zm-4-1.494c-.326.013-.659.02-1 .02s-.674-.007-1-.02v-2c.334.014.667.02 1 .02s.666-.007 1-.02zm2-4.171v-1.993c.685-.085 1.355-.2 2-.343v1.962c-.608.151-1.275.279-2 .374zm-2 .171c-.326.013-.659.02-1 .02s-.674-.007-1-.02v-2c.334.014.667.02 1 .02s.666-.007 1-.02zm-4 1.836v1.993c-.725-.095-1.392-.223-2-.373v-1.962c.645.142 1.315.257 2 .342zm0 4v1.993c-.725-.095-1.392-.223-2-.373v-1.962c.645.142 1.315.257 2 .342zm2 2.164v-2c.334.014.667.02 1 .02s.666-.007 1-.02v2c-.326.013-.659.02-1 .02s-.674-.007-1-.02zm8-1.204v-1.875c.747-.268 1.426-.581 2-.943v1.042c0 .551-.716 1.213-2 1.776zm0-4v-1.875c.747-.268 1.426-.581 2-.943v1.042c0 .551-.716 1.213-2 1.776zm0-4v-1.875c.747-.268 1.426-.581 2-.943v1.042c0 .551-.716 1.213-2 1.776zm-7-24.776c4.962 0 9 4.038 9 9s-4.038 9-9 9-9-4.038-9-9 4.038-9 9-9zm-7.182 17.313c1.929 1.669 4.437 2.687 7.182 2.687s5.253-1.018 7.182-2.687c1.12.528 1.818 1.164 1.818 1.687 0 1.223-3.506 3-9 3s-9-1.777-9-3c0-.523.698-1.159 1.818-1.687zm-1.818 4.645c.574.362 1.253.675 2 .943v1.875c-1.284-.563-2-1.225-2-1.776zm0 4c.574.362 1.253.675 2 .943v1.875c-1.284-.563-2-1.225-2-1.776z"/><path d="m45 23c-.551 0-1-.449-1-1h-2c0 1.654 1.346 3 3 3v2h2v-2h3v-3c0-1.654-1.346-3-3-3h-2c-.551 0-1-.449-1-1v-1h3c.551 0 1 .449 1 1h2c0-1.654-1.346-3-3-3v-2h-2v2h-3v3c0 1.654 1.346 3 3 3h2c.551 0 1 .449 1 1v1z"/><path d="m46 55c5.333 0 11-1.752 11-5v-20c0-1.22-.843-2.322-2.381-3.186 1.486-1.876 2.381-4.241 2.381-6.814 0-6.065-4.935-11-11-11s-11 4.935-11 11c0 2.573.895 4.938 2.381 6.814-1.538.864-2.381 1.966-2.381 3.186v20c0 3.248 5.667 5 11 5zm-9-5v-1.042c.574.362 1.253.675 2 .943v1.875c-1.284-.563-2-1.225-2-1.776zm6-15.184v1.993c-.725-.095-1.392-.223-2-.373v-1.962c.645.142 1.315.257 2 .342zm6 13.993v-1.993c.685-.085 1.355-.2 2-.343v1.962c-.608.151-1.275.279-2 .374zm2 1.665v1.962c-.608.15-1.275.278-2 .373v-1.993c.685-.085 1.355-.2 2-.342zm-5-7.474c.333 0 .666-.007 1-.02v2c-.326.013-.659.02-1 .02s-.674-.007-1-.02v-2c.334.013.667.02 1 .02zm-1-2.02v-2c.334.014.667.02 1 .02s.666-.007 1-.02v2c-.326.013-.659.02-1 .02s-.674-.007-1-.02zm1 6.02c.333 0 .666-.007 1-.02v2c-.326.013-.659.02-1 .02s-.674-.007-1-.02v-2c.334.013.667.02 1 .02zm3-2.191v-1.993c.685-.085 1.355-.2 2-.343v1.962c-.608.151-1.275.279-2 .374zm0-4v-1.993c.685-.085 1.355-.2 2-.343v1.962c-.608.151-1.275.279-2 .374zm0-4v-1.993c.685-.085 1.355-.2 2-.343v1.962c-.608.151-1.275.279-2 .374zm-2 .171c-.326.013-.659.02-1 .02s-.674-.007-1-.02v-2c.334.014.667.02 1 .02s.666-.007 1-.02zm-4 1.836v1.993c-.725-.095-1.392-.223-2-.373v-1.962c.645.142 1.315.257 2 .342zm0 4v1.993c-.725-.095-1.392-.223-2-.373v-1.962c.645.142 1.315.257 2 .342zm0 4v1.993c-.725-.095-1.392-.223-2-.373v-1.962c.645.142 1.315.257 2 .342zm0 4v1.993c-.725-.095-1.392-.223-2-.373v-1.962c.645.142 1.315.257 2 .342zm2 2.164v-2c.334.014.667.02 1 .02s.666-.007 1-.02v2c-.326.013-.659.02-1 .02s-.674-.007-1-.02zm8-1.204v-1.875c.747-.268 1.426-.581 2-.943v1.042c0 .551-.716 1.213-2 1.776zm0-4v-1.875c.747-.268 1.426-.581 2-.943v1.042c0 .551-.716 1.213-2 1.776zm0-4v-1.875c.747-.268 1.426-.581 2-.943v1.042c0 .551-.716 1.213-2 1.776zm0-4v-1.875c.747-.268 1.426-.581 2-.943v1.042c0 .551-.716 1.213-2 1.776zm0-4v-1.875c.747-.268 1.426-.581 2-.943v1.042c0 .551-.716 1.213-2 1.776zm-7-24.776c4.962 0 9 4.038 9 9s-4.038 9-9 9-9-4.038-9-9 4.038-9 9-9zm-7.182 17.314c1.93 1.668 4.437 2.686 7.182 2.686s5.252-1.018 7.182-2.686c1.12.527 1.818 1.163 1.818 1.686 0 1.223-3.506 3-9 3s-9-1.777-9-3c0-.523.698-1.159 1.818-1.686zm-1.818 4.644c.574.362 1.253.675 2 .943v1.875c-1.284-.563-2-1.225-2-1.776zm0 4c.574.362 1.253.675 2 .943v1.875c-1.284-.563-2-1.225-2-1.776zm0 4c.574.362 1.253.675 2 .943v1.875c-1.284-.563-2-1.225-2-1.776zm0 4c.574.362 1.253.675 2 .943v1.875c-1.284-.563-2-1.225-2-1.776z"/><path d="m43.586 1-12 12h-23l-7.586 7.586v42.414h62v-62zm-34.172 14h23l12-12h16.586v54h-58v-35.586zm-6.414 46v-2h58v2z"/></svg>